<?xml version="1.0" standalone="no"?>
<!DOCTYPE svg PUBLIC "-//W3C//DTD SVG 20010904//EN"
 "http://www.w3.org/TR/2001/REC-SVG-20010904/DTD/svg10.dtd">
<svg version="1.0" xmlns="http://www.w3.org/2000/svg"
 width="512.000000pt" height="512.000000pt" viewBox="0 0 512.000000 512.000000"
 preserveAspectRatio="xMidYMid meet">
<metadata>
Created by potrace 1.14, written by Peter Selinger 2001-2017
</metadata>
<g transform="translate(0.000000,512.000000) scale(0.100000,-0.100000)"
fill="#000000" stroke="none">
<path d="M1980 4863 c-135 -46 -214 -159 -219 -311 -1 -37 -3 -67 -4 -69 -4
-4 -62 -12 -126 -19 -36 -3 -68 -7 -71 -9 -3 -2 -38 -6 -79 -10 -41 -4 -98
-14 -125 -23 -40 -12 -123 -17 -376 -21 -362 -7 -362 -7 -434 -79 -71 -70 -66
70 -64 -2027 3 -1758 4 -1892 20 -1919 26 -46 73 -91 115 -112 37 -18 89 -19
1448 -22 1566 -3 1467 -7 1538 64 78 78 71 -28 77 1264 l5 1155 368 368 369
369 53 -49 c59 -54 85 -97 85 -141 0 -36 -26 -67 -274 -312 -97 -96 -176 -178
-176 -182 0 -10 98 -108 107 -108 19 0 452 448 474 490 19 36 24 60 23 120 0
94 -22 139 -111 232 l-65 66 32 34 c49 51 63 86 64 158 1 79 -19 125 -75 173
-68 59 -173 72 -252 30 -17 -8 -163 -148 -324 -309 -161 -162 -295 -294 -298
-294 -3 0 -5 184 -5 408 0 466 -2 479 -71 550 -67 68 -95 72 -440 72 -241 0
-303 3 -333 15 -19 8 -50 17 -68 19 -18 3 -55 7 -83 11 -64 8 -99 12 -155 19
-25 4 -62 8 -84 11 -21 2 -39 5 -41 7 -1 2 -5 40 -8 85 -8 131 -72 230 -183
283 -62 29 -170 35 -234 13z"/>
</g>
</svg>
